<svg width="41" height="41" viewBox="0 0 41 41" fill="none" xmlns="http://www.w3.org/2000/svg">
<circle cx="20.5" cy="20.5" r="20.5" fill="#5D8DF3"/>
<path fill-rule="evenodd" clip-rule="evenodd" d="M27.7517 22.667C28.4657 23.3632 29.2193 24.0183 29.8597 24.7848C30.1426 25.1254 30.4104 25.4769 30.6153 25.8722C30.9056 26.4341 30.6427 27.0524 30.1382 27.086L27.0024 27.0845C26.1936 27.1516 25.5484 26.8264 25.0059 26.2741C24.5718 25.8324 24.1697 25.3623 23.7522 24.9057C23.5811 24.7191 23.4019 24.5435 23.1879 24.4047C22.7599 24.1272 22.3883 24.2121 22.1437 24.6581C21.8945 25.1116 21.838 25.6138 21.8135 26.1193C21.7799 26.8568 21.5567 27.0507 20.815 27.0845C19.2298 27.1591 17.7254 26.9196 16.3279 26.1209C15.0958 25.4168 14.1403 24.4228 13.3087 23.2975C11.6895 21.1064 10.4495 18.6986 9.33509 16.2234C9.08424 15.6657 9.26769 15.3663 9.88375 15.3558C10.9067 15.3359 11.9296 15.3373 12.9538 15.3543C13.3696 15.3604 13.6448 15.5986 13.8054 15.9909C14.3588 17.3502 15.0361 18.6434 15.8862 19.842C16.1125 20.1612 16.3434 20.4803 16.6721 20.7049C17.0357 20.9536 17.3126 20.8712 17.4837 20.4666C17.5923 20.2101 17.6398 19.9337 17.6643 19.659C17.7453 18.7136 17.756 17.7699 17.6138 16.8279C17.5266 16.24 17.195 15.8595 16.6077 15.7482C16.3079 15.6915 16.3526 15.5801 16.4977 15.4092C16.7497 15.1145 16.9868 14.9311 17.4594 14.9311H20.32C20.7745 14.9311 21.3332 14.8745 21.5846 15.2531C21.68 15.3968 21.7259 15.5907 21.7615 15.8521L21.7646 19.7839C21.7585 20.001 21.8731 20.6451 22.2646 20.7888C22.5779 20.8911 22.7844 20.6407 22.9724 20.4423C23.8209 19.5428 24.4265 18.4798 24.9675 17.3791C25.2076 16.8951 25.4141 16.3925 25.6141 15.8903C25.7624 15.5176 25.995 15.3342 26.4153 15.3423L29.8261 15.3454C29.9273 15.3454 30.0296 15.3469 30.1276 15.3636C30.7023 15.4614 30.8598 15.7084 30.6823 16.2689C30.4026 17.1484 29.8584 17.8813 29.3263 18.6176C28.7575 19.4037 28.1491 20.1629 27.585 20.9537C27.0668 21.6758 27.1079 22.0398 27.7517 22.667Z" fill="white"/>
</svg>
