<svg width="41" height="41" viewBox="0 0 41 41" fill="none" xmlns="http://www.w3.org/2000/svg">
<circle cx="20.5" cy="20.5" r="15.1522" fill="white"/>
<path d="M17.9462 24.3392L24.6146 20.4986L17.9462 16.658V24.3392Z" fill="#F35D5D"/>
<path d="M20.5 0C9.17989 0 0 9.17989 0 20.5C0 31.8201 9.17989 41 20.5 41C31.8201 41 41 31.8201 41 20.5C41 9.17989 31.8201 0 20.5 0ZM33.3094 20.521C33.3094 20.521 33.3094 24.6785 32.782 26.6832C32.4864 27.7805 31.6212 28.6458 30.5238 28.941C28.5191 29.4688 20.5 29.4688 20.5 29.4688C20.5 29.4688 12.5019 29.4688 10.4762 28.9201C9.37884 28.6248 8.51362 27.7593 8.21802 26.6619C7.69032 24.6785 7.69032 20.5 7.69032 20.5C7.69032 20.5 7.69032 16.3428 8.21802 14.3381C8.51331 13.2407 9.3998 12.3542 10.4762 12.059C12.4809 11.5312 20.5 11.5312 20.5 11.5312C20.5 11.5312 28.5191 11.5312 30.5238 12.0799C31.6212 12.3752 32.4864 13.2407 32.782 14.3381C33.3306 16.3428 33.3094 20.521 33.3094 20.521Z" fill="#F35D5D"/>
</svg>
