<svg width="41" height="41" viewBox="0 0 41 41" fill="none" xmlns="http://www.w3.org/2000/svg">
<circle cx="20.5" cy="20.5" r="20.5" fill="#52CBFF"/>
<path d="M15.6629 21.4356L11.0651 19.4238C10.5469 19.1972 10.582 18.4506 11.1192 18.2738L28.6031 12.5101C29.0605 12.3594 29.5063 12.7678 29.3961 13.2369L25.9023 28.092C25.7979 28.5358 25.2646 28.7168 24.9119 28.428L20.8065 25.0688L15.6629 21.4356Z" fill="white"/>
<path d="M25.1904 15.7181L15.664 21.4357L16.8296 26.8425C16.9342 27.3276 17.5059 27.5414 17.9031 27.244L20.8076 25.0689L18.4178 23.1131L25.4914 16.1053C25.6988 15.8998 25.4408 15.5678 25.1904 15.7181Z" fill="#EBEBEB"/>
<path d="M17.2133 27.3194C17.4275 27.4162 17.6899 27.4035 17.9024 27.2444L20.8069 25.0693L19.612 24.0914L18.4171 23.1136L17.2133 27.3194Z" fill="#D2D2D2"/>
</svg>
