<svg width="101" height="102" viewBox="0 0 101 102" fill="none" xmlns="http://www.w3.org/2000/svg">
<mask id="mask0" mask-type="alpha" maskUnits="userSpaceOnUse" x="0" y="0" width="101" height="102">
<circle cx="50.5" cy="50.9009" r="50.5" fill="#C4C4C4"/>
</mask>
<g mask="url(#mask0)">
<path d="M40.0913 39.4596C40.0913 39.4596 32.9853 54.2331 31.7727 65.2954C31.6586 66.3705 31.7623 67.4571 32.0776 68.4929C32.3928 69.5286 32.9136 70.493 33.61 71.3308C34.3063 72.1686 35.1645 72.8632 36.1352 73.3747C37.106 73.8863 38.1701 74.2047 39.2667 74.3117C44.966 74.8351 52.8481 73.9073 57.6502 66.4373L67.3512 54.7327C69.0514 52.1944 69.9041 49.2 69.7911 46.1648C69.6781 43.1297 68.605 40.2042 66.7206 37.7943C60.2452 28.4449 43.9717 30.2292 40.0913 39.4596Z" fill="#F4A28C"/>
<path d="M63.6919 57.5108L67.6859 111.424L37.0157 111.448L46.1872 73.1924L63.6919 57.5108Z" fill="#F4A28C"/>
<path d="M43.6734 41.1364C48.3628 43.1063 53.2597 44.5222 58.2677 45.3563C56.122 46.962 54.4857 49.1699 53.5605 51.7081C52.6353 54.2462 52.4615 57.0037 53.0605 59.6408C53.5973 62.209 54.9961 64.508 57.0177 66.1448C59.0393 67.7816 61.5582 68.6545 64.1436 68.6142L71.3093 48.4363C72.4034 45.5783 72.7146 42.4727 72.2099 39.4495C71.7053 36.4262 70.4035 33.5982 68.443 31.2658C66.7625 29.2383 64.9596 27.3187 63.0448 25.518C58.2677 21.0556 48.4505 21.7832 44.7721 15.9627C44.3968 15.3835 43.8806 14.9125 43.2733 14.5954C42.6661 14.2782 41.9885 14.1257 41.3062 14.1525C40.6239 14.1794 39.9599 14.3846 39.3787 14.7485C38.7974 15.1124 38.3186 15.6225 37.9885 16.2295C34.8595 22.0015 32.447 32.0176 39.3739 38.3959C40.6469 39.546 42.1 40.4722 43.6734 41.1364Z" fill="#24285B"/>
<path d="M51.822 58.3668C51.822 58.3668 54.0525 52.0331 57.9782 54.2988C61.9039 56.5645 58.915 65.756 52.9819 64.2112L51.822 58.3668Z" fill="#F4A28C"/>
<path d="M35.4293 49.05L29.2 53.2866C28.8405 53.5137 28.5443 53.8281 28.3391 54.2005C28.1338 54.5729 28.0262 54.9912 28.0262 55.4164C28.0262 55.8416 28.1338 56.2599 28.3391 56.6323C28.5443 57.0047 28.8405 57.319 29.2 57.5461L34.4445 60.6835L35.4293 49.05Z" fill="#F4A28C"/>
<path opacity="0.31" d="M45.8852 74.2501C49.425 73.6176 52.7268 72.0357 55.4382 69.6732C55.4382 69.6732 57.3251 81.1627 43.3613 85.0083L45.8852 74.2501Z" fill="#CE8172"/>
</g>
</svg>
